<?xml version="1.0" encoding="UTF-8"?><svg xmlns="http://www.w3.org/2000/svg" xmlns:xlink="http://www.w3.org/1999/xlink" width="375pt" zoomAndPan="magnify" viewBox="0 0 375 374.999991" height="374.999991pt" preserveAspectRatio="xMidYMid meet" version="1.2"><defs><clipPath xml:id="clip1" id="clip1"><path d="M 91 132 L 283 132 L 283 312.332031 L 91 312.332031 Z M 91 132 "/></clipPath><clipPath xml:id="clip2" id="clip2"><path d="M 189 62.582031 L 231 62.582031 L 231 104 L 189 104 Z M 189 62.582031 "/></clipPath></defs><g xml:id="surface1" id="surface1"><rect x="0" width="375" y="0" height="374.999991" style="fill:rgb(100%,100%,100%);fill-opacity:1;stroke:none;"/><rect x="0" width="375" y="0" height="374.999991" style="fill:rgb(100%,100%,100%);fill-opacity:1;stroke:none;"/><rect x="0" width="375" y="0" height="374.999991" style="fill:rgb(35.289001%,27.059937%,100%);fill-opacity:1;stroke:none;"/><path style=" stroke:none;fill-rule:nonzero;fill:rgb(100%,100%,100%);fill-opacity:1;" d="M 152.148438 242.921875 L 118.882812 284.554688 C 116.371094 287.707031 118.605469 292.351562 122.625 292.351562 L 250.636719 292.351562 C 254.59375 292.351562 256.84375 287.832031 254.46875 284.667969 L 233.464844 256.808594 C 232.121094 255.03125 229.730469 254.414062 227.703125 255.3125 L 222.976562 257.410156 C 212.109375 262.226562 199.609375 261.679688 189.203125 255.941406 L 162.070312 240.960938 C 158.726562 239.113281 154.535156 239.9375 152.148438 242.921875 "/><g clip-rule="nonzero" clip-path="url(#clip1)"><path style=" stroke:none;fill-rule:nonzero;fill:rgb(100%,100%,100%);fill-opacity:1;" d="M 272.128906 297.925781 C 270.675781 300.765625 267.90625 302.445312 264.730469 302.445312 L 109.988281 302.445312 C 106.808594 302.445312 104.042969 300.765625 102.597656 297.925781 C 101.148438 295.082031 101.398438 291.847656 103.199219 289.355469 L 159.210938 215.582031 L 180.125 215.582031 C 182.847656 215.582031 185.054688 213.367188 185.054688 210.652344 C 185.054688 207.921875 182.847656 205.710938 180.125 205.710938 L 163.464844 205.710938 C 163.566406 204.914062 163.632812 204.101562 163.632812 203.300781 L 163.632812 198.191406 L 180.125 198.191406 C 182.847656 198.191406 185.054688 195.980469 185.054688 193.265625 C 185.054688 190.535156 182.847656 188.324219 180.125 188.324219 L 163.632812 188.324219 L 163.632812 180.8125 L 180.125 180.8125 C 182.847656 180.8125 185.054688 178.601562 185.054688 175.875 C 185.054688 173.148438 182.847656 170.941406 180.125 170.941406 L 163.632812 170.941406 L 163.632812 157.605469 C 163.632812 154.878906 161.425781 152.667969 158.703125 152.667969 L 143.75 152.667969 L 143.75 142.121094 L 230.972656 142.121094 L 230.972656 152.667969 L 216.011719 152.667969 C 213.300781 152.667969 211.089844 154.878906 211.089844 157.605469 L 211.089844 203.300781 C 211.089844 207.460938 212.472656 211.578125 214.992188 214.894531 L 271.484375 289.316406 C 273.316406 291.890625 273.554688 295.097656 272.128906 297.925781 Z M 279.441406 283.476562 C 279.414062 283.449219 279.398438 283.421875 279.371094 283.394531 L 222.835938 208.929688 C 221.621094 207.320312 220.949219 205.320312 220.949219 203.300781 L 220.949219 162.539062 L 232.023438 162.539062 C 236.875 162.539062 240.832031 158.585938 240.832031 153.722656 L 240.832031 141.066406 C 240.832031 136.203125 236.875 132.25 232.023438 132.25 L 142.695312 132.25 C 137.839844 132.25 133.890625 136.203125 133.890625 141.066406 L 133.890625 153.722656 C 133.890625 158.585938 137.839844 162.539062 142.695312 162.539062 L 153.773438 162.539062 L 153.773438 203.300781 C 153.773438 205.320312 153.101562 207.320312 151.882812 208.929688 L 95.28125 283.476562 C 91.257812 289.035156 90.695312 296.300781 93.816406 302.40625 C 96.933594 308.523438 103.132812 312.332031 109.988281 312.332031 L 264.734375 312.332031 C 271.585938 312.332031 277.792969 308.523438 280.914062 302.40625 C 284.03125 296.300781 283.457031 289.035156 279.445312 283.476562 "/></g><path style=" stroke:none;fill-rule:nonzero;fill:rgb(100%,100%,100%);fill-opacity:1;" d="M 166.535156 110.941406 C 166.535156 104.695312 171.59375 99.632812 177.832031 99.632812 C 184.074219 99.632812 189.136719 104.695312 189.136719 110.941406 C 189.136719 117.1875 184.074219 122.253906 177.832031 122.253906 C 171.59375 122.253906 166.535156 117.1875 166.535156 110.941406 "/><g clip-rule="nonzero" clip-path="url(#clip2)"><path style=" stroke:none;fill-rule:nonzero;fill:rgb(100%,100%,100%);fill-opacity:1;" d="M 189.136719 83.269531 C 189.136719 71.847656 198.378906 62.585938 209.789062 62.585938 C 221.199219 62.585938 230.457031 71.847656 230.457031 83.269531 C 230.457031 94.695312 221.199219 103.957031 209.789062 103.957031 C 198.378906 103.957031 189.136719 94.695312 189.136719 83.269531 "/></g></g></svg>